HIERARCHY
ROOT Hips
{
	OFFSET 0.000000 0.000000 0.000000
	CHANNELS 6 Xposition Yposition Zposition Zrotation Yrotation Xrotation 
	JOINT LHipJoint
	{
		OFFSET 0.000000 0.000000 0.000000
		CHANNELS 3 Zrotation Yrotation Xrotation
		JOINT LeftUpLeg
		{
			OFFSET 1.363060 -1.794630 0.839290
			CHANNELS 3 Zrotation Yrotation Xrotation
			JOINT LeftLeg
			{
				OFFSET 2.448110 -6.726130 0.000000
				CHANNELS 3 Zrotation Yrotation Xrotation
				JOINT LeftFoot
				{
					OFFSET 2.562200 -7.039590 0.000000
					CHANNELS 3 Zrotation Yrotation Xrotation
					JOINT LeftToeBase
					{
						OFFSET 0.157640 -0.433110 2.322550
						CHANNELS 3 Zrotation Yrotation Xrotation
						End Site
						{
							OFFSET 0.000000 0.000000 0.000000
						}
					}
				}
			}
		}
	}
	JOINT RHipJoint
	{
		OFFSET 0.000000 0.000000 0.000000
		CHANNELS 3 Zrotation Yrotation Xrotation
		JOINT RightUpLeg
		{
			OFFSET -1.305520 -1.794630 0.839290
			CHANNELS 3 Zrotation Yrotation Xrotation
			JOINT RightLeg
			{
				OFFSET -2.542530 -6.985550 0.000000
				CHANNELS 3 Zrotation Yrotation Xrotation
				JOINT RightFoot
				{
					OFFSET -2.568260 -7.056230 0.000000
					CHANNELS 3 Zrotation Yrotation Xrotation
					JOINT RightToeBase
					{
						OFFSET -0.164730 -0.452590 2.363150
						CHANNELS 3 Zrotation Yrotation Xrotation
						End Site
						{
							OFFSET 0.000000 0.000000 0.000000
						}
					}
				}
			}
		}
	}
	JOINT LowerBack
	{
		OFFSET 0.000000 0.000000 0.000000
		CHANNELS 3 Zrotation Yrotation Xrotation
		JOINT Spine
		{
			OFFSET 0.028270 2.035590 -0.193380
			CHANNELS 3 Zrotation Yrotation Xrotation
			JOINT Spine1
			{
				OFFSET 0.056720 2.048850 -0.042750
				CHANNELS 3 Zrotation Yrotation Xrotation
				JOINT Neck
				{
					OFFSET 0.000000 0.000000 0.000000
					CHANNELS 3 Zrotation Yrotation Xrotation
					JOINT Neck1
					{
						OFFSET -0.054170 1.746240 0.172020
						CHANNELS 3 Zrotation Yrotation Xrotation
						JOINT Head
						{
							OFFSET 0.104070 1.761360 -0.123970
							CHANNELS 3 Zrotation Yrotation Xrotation
							End Site
							{
								OFFSET 0.000000 0.000000 0.000000
							}
						}
					}
				}
				JOINT LeftShoulder
				{
					OFFSET 0.000000 0.000000 0.000000
					CHANNELS 3 Zrotation Yrotation Xrotation
					JOINT LeftArm
					{
						OFFSET 3.362410 1.200890 -0.311210
						CHANNELS 3 Zrotation Yrotation Xrotation
						JOINT LeftForeArm
						{
							OFFSET 4.983000 -0.000000 -0.000000
							CHANNELS 3 Zrotation Yrotation Xrotation
							JOINT LeftHand
							{
								OFFSET 3.483560 -0.000000 -0.000000
								CHANNELS 3 Zrotation Yrotation Xrotation
								JOINT LeftFingerBase
								{
									OFFSET 0.000000 0.000000 0.000000
									CHANNELS 3 Zrotation Yrotation Xrotation
									JOINT LeftHandIndex1
									{
										OFFSET 0.715260 -0.000000 -0.000000
										CHANNELS 3 Zrotation Yrotation Xrotation
										End Site
										{
											OFFSET 0.000000 0.000000 0.000000
										}
									}
								}
								JOINT LThumb
								{
									OFFSET 0.000000 0.000000 0.000000
									CHANNELS 3 Zrotation Yrotation Xrotation
									End Site
									{
										OFFSET 0.000000 0.000000 0.000000
									}
								}
							}
						}
					}
				}
				JOINT RightShoulder
				{
					OFFSET 0.000000 0.000000 0.000000
					CHANNELS 3 Zrotation Yrotation Xrotation
					JOINT RightArm
					{
						OFFSET -3.136600 1.374050 -0.404650
						CHANNELS 3 Zrotation Yrotation Xrotation
						JOINT RightForeArm
						{
							OFFSET -5.241900 -0.000000 -0.000000
							CHANNELS 3 Zrotation Yrotation Xrotation
							JOINT RightHand
							{
								OFFSET -3.444170 -0.000000 -0.000000
								CHANNELS 3 Zrotation Yrotation Xrotation
								JOINT RightFingerBase
								{
									OFFSET 0.000000 0.000000 0.000000
									CHANNELS 3 Zrotation Yrotation Xrotation
									JOINT RightHandIndex1
									{
										OFFSET -0.622530 -0.000000 -0.000000
										CHANNELS 3 Zrotation Yrotation Xrotation
										End Site
										{
											OFFSET 0.000000 0.000000 0.000000
										}
									}
								}
								JOINT RThumb
								{
									OFFSET 0.000000 0.000000 0.000000
									CHANNELS 3 Zrotation Yrotation Xrotation
									End Site
									{
										OFFSET 0.000000 0.000000 0.000000
									}
								}
							}
						}
					}
				}
			}
		}
	}
}
MOTION
Frames: 6
Frame Time: 0.008333
-2.784678 15.829269 1.513850 97.541124 -86.694330 -97.844076 -9.449654 2.304644 -1.970911 -20.469579 11.590878 -23.931884 -2.128487 2.663842 50.364818 3.436010 13.809718 -31.456686 -6.496000 0.000000 -14.501301 12.237828 1.433730 -1.125860 -12.038090 -11.869529 -28.020097 -0.651710 -4.009368 60.794916 -3.179621 -15.850303 -17.262824 2.263800 -0.000000 -29.490200 -3.270178 -1.388822 2.203333 -1.097984 -1.153554 -2.129611 -5.186173 -1.176136 2.218349 8.565359 -11.986141 -11.482458 -1.846130 -0.081081 -1.084088 0.000000 0.000000 0.000000 -3.470214 20.392807 1.534797 -76.446869 -3.592525 -4.467064 -3.215145 -10.267100 -0.005781 11.039632 0.006234 -0.002285 -0.103767 0.032339 -0.000000 0.000000 0.000000 0.000000 0.000000 0.000000 0.000000 8.726174 -7.713178 0.611434 75.577054 -2.098191 -22.203883 3.101091 17.532241 0.007573 -8.381678 9.937812 -0.751939 0.146911 -0.131529 -0.000000 0.000000 0.000000 0.000000 0.000000 0.000000 0.000000 
-2.990481 15.855946 1.493369 98.231591 -86.709761 -98.407566 -9.433690 2.377437 -2.009189 -20.155085 11.905035 -22.742123 -2.187771 2.586426 49.422893 3.439099 13.736743 -31.583281 -6.513999 0.000000 -15.540000 12.141643 1.636230 -0.960379 -11.359116 -11.826434 -29.289975 -0.519693 -3.860449 58.988109 -3.301611 -16.159014 -17.463952 2.336400 0.000000 -28.943601 -3.172362 -1.548262 2.102766 -1.090500 -1.325582 -2.143689 -5.273327 -1.344537 2.203159 8.727708 -12.179941 -11.500806 -1.915226 -0.085837 -1.090070 0.000000 0.000000 0.000000 -3.030970 19.874069 1.429837 -75.626485 -4.634157 -4.343587 -3.184291 -13.665478 -0.007371 11.765679 -0.516512 -0.058015 -0.111086 0.043801 -0.000000 0.000000 0.000000 0.000000 0.000000 0.000000 0.000000 9.248219 -8.089367 0.690989 77.039074 -2.762166 -23.482897 3.156656 15.521377 0.008366 -8.061110 9.841135 -0.715783 0.143440 -0.124269 -0.000000 0.000000 0.000000 0.000000 0.000000 0.000000 0.000000 
-3.201263 15.898087 1.473662 98.559622 -86.759179 -98.652992 -9.432254 2.453775 -2.016999 -19.747894 12.229056 -21.322252 -2.255159 2.477982 48.091768 3.411161 13.557140 -31.474552 -6.427600 0.000001 -16.348300 12.015447 1.795692 -0.816759 -10.541391 -11.884018 -30.323303 -0.361691 -3.681610 56.803940 -3.398955 -16.292636 -17.609706 2.371100 -0.000000 -28.627600 -3.033656 -1.733606 1.978204 -1.071087 -1.525824 -2.158942 -5.344440 -1.540619 2.188645 8.881430 -12.402419 -11.510842 -1.980963 -0.090550 -1.092418 0.000000 0.000000 0.000000 -2.544085 19.368475 1.323668 -74.748226 -5.374631 -4.147934 -3.138045 -17.424149 -0.009078 12.329599 -0.996975 -0.114432 -0.119820 0.055665 -0.000000 0.000000 0.000000 0.000000 0.000000 0.000000 0.000000 9.777992 -8.500049 0.768914 78.342072 -3.553549 -24.502555 3.218423 13.717902 0.008915 -7.561549 9.472405 -0.646225 0.140116 -0.116184 -0.000000 0.000000 0.000000 0.000000 0.000000 0.000000 0.000000 
-3.417260 15.955298 1.454809 98.316845 -86.850815 -98.376086 -9.453311 2.530672 -1.992406 -19.232265 12.539935 -19.676408 -2.325312 2.341371 46.399972 3.352839 13.281982 -31.132786 -6.243200 0.000001 -16.973101 11.855830 1.907081 -0.704022 -9.575684 -12.053656 -31.094673 -0.178452 -3.471500 54.237234 -3.463932 -16.227117 -17.667604 2.355500 -0.000000 -28.642700 -2.848638 -1.950738 1.836540 -1.038797 -1.760425 -2.172362 -5.401649 -1.770231 2.183147 9.032519 -12.667942 -11.522032 -2.042699 -0.095011 -1.093742 0.000000 0.000000 0.000000 -2.041007 18.923898 1.214888 -73.784582 -5.891671 -3.909138 -3.072002 -21.394546 -0.010963 12.748910 -1.426121 -0.168234 -0.129650 0.068461 -0.000000 0.000000 0.000000 0.000000 0.000000 0.000000 0.000000 10.321883 -8.961226 0.837922 79.473685 -4.465835 -25.204870 3.290092 12.179462 0.009243 -6.903662 8.870870 -0.552865 0.136979 -0.107259 -0.000000 0.000000 0.000000 0.000000 0.000000 0.000000 0.000000 
-3.638416 16.026536 1.436751 97.265682 -86.988935 -97.345885 -9.502908 2.606408 -1.935767 -18.597320 12.819739 -17.808252 -2.391435 2.180458 44.382383 3.265570 12.928816 -30.555825 -5.969900 0.000000 -17.534000 11.662358 1.966650 -0.628993 -8.462665 -12.342011 -31.581954 0.028134 -3.229836 51.293835 -3.490566 -15.955841 -17.602709 2.279900 0.000001 -29.071000 -2.615966 -2.200627 1.685472 -0.992919 -2.030445 -2.183122 -5.443372 -2.034540 2.186569 9.174823 -12.972471 -11.531611 -2.098557 -0.099108 -1.093223 0.000000 0.000000 0.000000 -1.520277 18.533116 1.104415 -72.742561 -6.212005 -3.685405 -2.984221 -25.449627 -0.013087 13.033358 -1.800833 -0.216823 -0.140132 0.082599 0.000000 0.000000 0.000000 0.000000 0.000000 0.000000 0.000000 10.856947 -9.469943 0.895461 80.448559 -5.505417 -25.582317 3.373623 10.934009 0.009371 -6.124172 8.103090 -0.448603 0.134012 -0.097564 -0.000000 0.000000 0.000000 0.000000 0.000000 0.000000 0.000000 
-3.864309 16.110148 1.419014 95.126503 -87.170068 -95.291283 -9.581670 2.680499 -1.849361 -17.843276 13.053996 -15.725473 -2.445662 1.999696 42.074448 3.151780 12.520815 -29.733549 -5.618700 0.000000 -18.208400 11.439820 1.973277 -0.592851 -7.217748 -12.743387 -31.771474 0.254759 -2.957334 47.990997 -3.476631 -15.496346 -17.387992 2.142501 -0.000000 -29.946000 -2.344236 -2.480273 1.529879 -0.933838 -2.332440 -2.190796 -5.463490 -2.330497 2.199807 9.298973 -13.334722 -11.536586 -2.142167 -0.102352 -1.089881 0.000000 0.000000 0.000000 -0.950414 18.160301 0.990881 -71.664119 -6.338945 -3.553338 -2.874565 -29.466488 -0.015461 13.187018 -2.135762 -0.260504 -0.150688 0.098426 0.000000 0.000000 0.000000 0.000000 0.000000 0.000000 0.000000 11.342264 -10.048753 0.942739 81.292387 -6.642960 -25.666985 3.468625 9.944301 0.009339 -5.276440 7.261324 -0.347038 0.131270 -0.087374 -0.000000 0.000000 0.000000 0.000000 0.000000 0.000000 0.000000 
